<svg width="111" height="30" viewBox="0 0 111 30" fill="none" xmlns="http://www.w3.org/2000/svg">
<path d="M41.1458 14.4476C41.1458 13.4639 41.3836 12.5867 41.859 11.8161C42.3509 11.0292 43.0067 10.4062 43.8264 9.9471C44.6462 9.48803 45.5479 9.2585 46.5316 9.2585C47.5153 9.2585 48.2449 9.42245 48.7204 9.75036C49.2122 10.0619 49.4008 10.439 49.286 10.8816C49.2368 11.1112 49.1385 11.2915 48.9909 11.4227C48.8597 11.5374 48.704 11.6112 48.5236 11.644C48.3433 11.6768 48.1466 11.6686 47.9334 11.6194C46.8841 11.4063 45.9414 11.3899 45.1053 11.5702C44.2691 11.7506 43.6051 12.0867 43.1133 12.5785C42.6378 13.0704 42.4001 13.6934 42.4001 14.4476H41.1458ZM41.1704 22.8583C40.7769 22.8583 40.4736 22.7599 40.2605 22.5632C40.0474 22.35 39.9408 22.0385 39.9408 21.6286V10.6357C39.9408 10.2422 40.0474 9.9389 40.2605 9.72576C40.4736 9.51263 40.7769 9.40606 41.1704 9.40606C41.5803 9.40606 41.8836 9.51263 42.0804 9.72576C42.2935 9.9225 42.4001 10.2258 42.4001 10.6357V21.6286C42.4001 22.0221 42.2935 22.3254 42.0804 22.5386C41.8836 22.7517 41.5803 22.8583 41.1704 22.8583Z" fill="white"/>
<path d="M57.0152 22.9566C55.6872 22.9566 54.515 22.6697 53.4985 22.0959C52.482 21.5057 51.6786 20.7023 51.0884 19.6858C50.5146 18.6529 50.2277 17.4725 50.2277 16.1445C50.2277 14.8001 50.5146 13.6196 51.0884 12.6031C51.6786 11.5702 52.482 10.7669 53.4985 10.193C54.515 9.6028 55.6872 9.30769 57.0152 9.30769C58.3268 9.30769 59.4909 9.6028 60.5074 10.193C61.5239 10.7669 62.3191 11.5702 62.8929 12.6031C63.4831 13.6196 63.7782 14.8001 63.7782 16.1445C63.7782 17.4725 63.4913 18.6529 62.9175 19.6858C62.3437 20.7023 61.5485 21.5057 60.532 22.0959C59.5155 22.6697 58.3432 22.9566 57.0152 22.9566ZM57.0152 20.7433C57.8678 20.7433 58.622 20.5466 59.2778 20.1531C59.9336 19.7596 60.4418 19.2185 60.8025 18.5299C61.1796 17.8414 61.3681 17.0462 61.3681 16.1445C61.3681 15.2427 61.1796 14.4476 60.8025 13.759C60.4418 13.054 59.9336 12.5047 59.2778 12.1113C58.622 11.7178 57.8678 11.521 57.0152 11.521C56.1627 11.521 55.4085 11.7178 54.7527 12.1113C54.0969 12.5047 53.5805 13.054 53.2034 13.759C52.8263 14.4476 52.6377 15.2427 52.6377 16.1445C52.6377 17.0462 52.8263 17.8414 53.2034 18.5299C53.5805 19.2185 54.0969 19.7596 54.7527 20.1531C55.4085 20.5466 56.1627 20.7433 57.0152 20.7433Z" fill="white"/>
<path d="M73.6105 22.9566C72.3317 22.9566 71.1758 22.6615 70.1429 22.0713C69.1264 21.4647 68.3149 20.6449 67.7083 19.612C67.118 18.5791 66.8229 17.4151 66.8229 16.1199C66.8229 14.8246 67.0934 13.6688 67.6345 12.6523C68.1919 11.6194 68.9461 10.8078 69.897 10.2176C70.8479 9.611 71.9218 9.30769 73.1187 9.30769C74.086 9.30769 74.9795 9.51263 75.7993 9.9225C76.619 10.316 77.3076 10.857 77.865 11.5456V4.90559C77.865 4.52851 77.9798 4.2252 78.2093 3.99566C78.4553 3.76613 78.7586 3.65137 79.1193 3.65137C79.4964 3.65137 79.7997 3.76613 80.0292 3.99566C80.2587 4.2252 80.3735 4.52851 80.3735 4.90559V16.1199C80.3735 17.4151 80.0702 18.5791 79.4636 19.612C78.8733 20.6449 78.07 21.4647 77.0535 22.0713C76.037 22.6615 74.8893 22.9566 73.6105 22.9566ZM73.6105 20.7433C74.4467 20.7433 75.1926 20.5466 75.8484 20.1531C76.5042 19.7432 77.0207 19.1858 77.3978 18.4808C77.7749 17.7758 77.9634 16.9888 77.9634 16.1199C77.9634 15.2345 77.7749 14.4476 77.3978 13.759C77.0207 13.0704 76.5042 12.5293 75.8484 12.1358C75.1926 11.726 74.4467 11.521 73.6105 11.521C72.7907 11.521 72.0448 11.726 71.3726 12.1358C70.7168 12.5293 70.1921 13.0704 69.7986 13.759C69.4216 14.4476 69.233 15.2345 69.233 16.1199C69.233 16.9888 69.4216 17.7758 69.7986 18.4808C70.1921 19.1858 70.7168 19.7432 71.3726 20.1531C72.0448 20.5466 72.7907 20.7433 73.6105 20.7433Z" fill="white"/>
<path d="M90.4104 22.9566C89.2135 22.9566 88.1397 22.6615 87.1887 22.0713C86.2378 21.4647 85.4837 20.6531 84.9262 19.6366C84.3852 18.6037 84.1147 17.4397 84.1147 16.1445C84.1147 14.8492 84.4098 13.6852 85 12.6523C85.6066 11.6194 86.4182 10.8078 87.4347 10.2176C88.4676 9.611 89.6234 9.30769 90.9022 9.30769C92.1811 9.30769 93.3287 9.611 94.3452 10.2176C95.3617 10.8078 96.1651 11.6194 96.7553 12.6523C97.3619 13.6852 97.6652 14.8492 97.6652 16.1445H96.7061C96.7061 17.4397 96.4274 18.6037 95.87 19.6366C95.3289 20.6531 94.583 21.4647 93.632 22.0713C92.6811 22.6615 91.6072 22.9566 90.4104 22.9566ZM90.9022 20.7433C91.7384 20.7433 92.4844 20.5466 93.1402 20.1531C93.796 19.7432 94.3124 19.194 94.6895 18.5054C95.0666 17.8004 95.2552 17.0134 95.2552 16.1445C95.2552 15.2591 95.0666 14.4722 94.6895 13.7836C94.3124 13.0786 93.796 12.5293 93.1402 12.1358C92.4844 11.726 91.7384 11.521 90.9022 11.521C90.0825 11.521 89.3365 11.726 88.6643 12.1358C88.0085 12.5293 87.4839 13.0786 87.0904 13.7836C86.7133 14.4722 86.5247 15.2591 86.5247 16.1445C86.5247 17.0134 86.7133 17.8004 87.0904 18.5054C87.4839 19.194 88.0085 19.7432 88.6643 20.1531C89.3365 20.5466 90.0825 20.7433 90.9022 20.7433ZM96.411 22.8829C96.0503 22.8829 95.747 22.7681 95.5011 22.5386C95.2715 22.2926 95.1568 21.9893 95.1568 21.6286V17.8659L95.624 15.2591L97.6652 16.1445V21.6286C97.6652 21.9893 97.5423 22.2926 97.2963 22.5386C97.0668 22.7681 96.7717 22.8829 96.411 22.8829Z" fill="white"/>
<path d="M102.604 14.4476C102.604 13.4639 102.841 12.5867 103.317 11.8161C103.809 11.0292 104.464 10.4062 105.284 9.9471C106.104 9.48803 107.006 9.2585 107.989 9.2585C108.973 9.2585 109.703 9.42245 110.178 9.75036C110.67 10.0619 110.859 10.439 110.744 10.8816C110.695 11.1112 110.596 11.2915 110.449 11.4227C110.317 11.5374 110.162 11.6112 109.981 11.644C109.801 11.6768 109.604 11.6686 109.391 11.6194C108.342 11.4063 107.399 11.3899 106.563 11.5702C105.727 11.7506 105.063 12.0867 104.571 12.5785C104.096 13.0704 103.858 13.6934 103.858 14.4476H102.604ZM102.628 22.8583C102.235 22.8583 101.931 22.7599 101.718 22.5632C101.505 22.35 101.399 22.0385 101.399 21.6286V10.6357C101.399 10.2422 101.505 9.9389 101.718 9.72576C101.931 9.51263 102.235 9.40606 102.628 9.40606C103.038 9.40606 103.341 9.51263 103.538 9.72576C103.751 9.9225 103.858 10.2258 103.858 10.6357V21.6286C103.858 22.0221 103.751 22.3254 103.538 22.5386C103.341 22.7517 103.038 22.8583 102.628 22.8583Z" fill="white"/>
<path d="M29.9408 14.9704C29.9408 11.8832 28.9864 8.87159 27.2083 6.34793C25.4302 3.82427 22.9154 1.91203 20.0083 0.873139C17.1012 -0.165755 13.944 -0.280497 10.9691 0.54463C7.99431 1.36976 5.34731 3.0944 3.3907 5.48232C1.4341 7.87025 0.263591 10.8047 0.0394941 13.8837C-0.184603 16.9627 0.548675 20.0357 2.13889 22.6818C3.72911 25.3278 6.09849 27.4176 8.9225 28.6648C11.7465 29.9119 14.887 30.2556 17.9139 29.6486L16.065 20.4289C14.9394 20.6546 13.7715 20.5268 12.7213 20.063C11.6711 19.5992 10.79 18.8221 10.1987 17.8381C9.60729 16.8541 9.3346 15.7113 9.41794 14.5663C9.50127 13.4213 9.93656 12.33 10.6642 11.442C11.3918 10.554 12.3761 9.91263 13.4824 9.60579C14.5887 9.29894 15.7628 9.34161 16.8439 9.72795C17.9249 10.1143 18.8601 10.8254 19.5214 11.7639C20.1826 12.7024 20.5375 13.8224 20.5375 14.9704H29.9408Z" fill="white"/>
<path d="M19.9097 29.1025C21.6066 28.5094 23.1829 27.6155 24.563 26.4637L18.5379 19.2447C18.0246 19.6731 17.4384 20.0055 16.8073 20.2261L19.9097 29.1025Z" fill="#FFA600"/>
<path d="M26.002 25.0905C27.0008 24.0017 27.833 22.771 28.4714 21.4384L19.9914 17.3759C19.754 17.8714 19.4445 18.3291 19.073 18.7341L26.002 25.0905Z" fill="#00AC76"/>
<path d="M29.1861 19.6637C29.4832 18.7637 29.6942 17.8375 29.8162 16.8976L20.4916 15.6871C20.4462 16.0367 20.3677 16.3811 20.2572 16.7158L29.1861 19.6637Z" fill="#109BFF"/>
</svg>
