<svg width="150" height="48" viewBox="0 0 150 48" fill="none" xmlns="http://www.w3.org/2000/svg">
<path d="M47.7612 23.8806C47.7612 18.956 46.2387 14.1519 43.4023 10.1261C40.5659 6.10043 36.5543 3.05005 31.917 1.39282C27.2796 -0.26441 22.2433 -0.447445 17.4979 0.868787C12.7524 2.18502 8.52996 4.93615 5.40881 8.74534C2.28766 12.5545 0.420477 17.2355 0.0630006 22.1471C-0.294476 27.0587 0.875241 31.9607 3.41193 36.1817C5.94863 40.4027 9.72824 43.7362 14.2331 45.7257C18.7379 47.7152 23.7476 48.2633 28.5761 47.295L25.6267 32.5879C23.8312 32.948 21.9682 32.7441 20.2929 32.0043C18.6177 31.2645 17.2121 30.0248 16.2688 28.4551C15.3254 26.8854 14.8905 25.0625 15.0234 23.236C15.1563 21.4095 15.8507 19.6687 17.0114 18.2522C18.1721 16.8356 19.7423 15.8125 21.507 15.323C23.2717 14.8336 25.1446 14.9016 26.8691 15.5179C28.5937 16.1342 30.0855 17.2686 31.1403 18.7656C32.1951 20.2627 32.7613 22.0493 32.7613 23.8806H47.7612Z" fill="#1B1A1A"/>
<path d="M31.7597 46.424C34.4666 45.4779 36.9811 44.052 39.1825 42.2146L29.5714 30.699C28.7527 31.3823 27.8176 31.9126 26.8108 32.2645L31.7597 46.424Z" fill="#FFA600"/>
<path d="M41.478 40.0242C43.0714 38.2873 44.3989 36.3241 45.4173 34.1984L31.8901 27.7178C31.5114 28.5083 31.0177 29.2384 30.4251 29.8844L41.478 40.0242Z" fill="#00AC76"/>
<path d="M46.5573 31.3673C47.0313 29.9316 47.3679 28.4541 47.5625 26.9548L32.6879 25.0239C32.6155 25.5815 32.4904 26.131 32.3141 26.6649L46.5573 31.3673Z" fill="#109BFF"/>
<path d="M63.8791 25.2874C63.8791 24.0707 64.1731 22.9858 64.7612 22.0328C65.3695 21.0594 66.1807 20.2889 67.1946 19.7211C68.2085 19.1533 69.3237 18.8694 70.5404 18.8694C71.7571 18.8694 72.6595 19.0722 73.2475 19.4777C73.8559 19.863 74.0891 20.3294 73.9471 20.8769C73.8863 21.1608 73.7646 21.3839 73.5821 21.5461C73.4199 21.688 73.2273 21.7793 73.0042 21.8198C72.7811 21.8604 72.5378 21.8503 72.2742 21.7894C70.9764 21.5258 69.8104 21.5055 68.7762 21.7286C67.7421 21.9517 66.9208 22.3674 66.3125 22.9757C65.7244 23.584 65.4304 24.3546 65.4304 25.2874H63.8791ZM63.9095 35.69C63.4228 35.69 63.0477 35.5683 62.7841 35.325C62.5205 35.0614 62.3887 34.6761 62.3887 34.1691V20.5727C62.3887 20.0861 62.5205 19.7109 62.7841 19.4473C63.0477 19.1837 63.4228 19.0519 63.9095 19.0519C64.4165 19.0519 64.7916 19.1837 65.0349 19.4473C65.2986 19.6907 65.4304 20.0658 65.4304 20.5727V34.1691C65.4304 34.6558 65.2986 35.031 65.0349 35.2946C64.7916 35.5582 64.4165 35.69 63.9095 35.69Z" fill="#1B1A1A"/>
<path d="M83.5068 35.8117C81.8643 35.8117 80.4145 35.4568 79.1572 34.7471C77.9 34.0171 76.9064 33.0234 76.1764 31.7662C75.4666 30.4887 75.1118 29.0287 75.1118 27.3862C75.1118 25.7234 75.4666 24.2633 76.1764 23.0061C76.9064 21.7286 77.9 20.735 79.1572 20.0252C80.4145 19.2952 81.8643 18.9302 83.5068 18.9302C85.1291 18.9302 86.5688 19.2952 87.8261 20.0252C89.0833 20.735 90.0668 21.7286 90.7765 23.0061C91.5065 24.2633 91.8715 25.7234 91.8715 27.3862C91.8715 29.0287 91.5167 30.4887 90.8069 31.7662C90.0972 33.0234 89.1137 34.0171 87.8565 34.7471C86.5992 35.4568 85.1494 35.8117 83.5068 35.8117ZM83.5068 33.0741C84.5613 33.0741 85.4941 32.8308 86.3052 32.3441C87.1163 31.8574 87.7449 31.1883 88.1911 30.3366C88.6575 29.4849 88.8907 28.5014 88.8907 27.3862C88.8907 26.2709 88.6575 25.2874 88.1911 24.4357C87.7449 23.5638 87.1163 22.8844 86.3052 22.3978C85.4941 21.9111 84.5613 21.6678 83.5068 21.6678C82.4524 21.6678 81.5196 21.9111 80.7085 22.3978C79.8974 22.8844 79.2586 23.5638 78.7922 24.4357C78.3258 25.2874 78.0926 26.2709 78.0926 27.3862C78.0926 28.5014 78.3258 29.4849 78.7922 30.3366C79.2586 31.1883 79.8974 31.8574 80.7085 32.3441C81.5196 32.8308 82.4524 33.0741 83.5068 33.0741Z" fill="#1B1A1A"/>
<path d="M104.032 35.8117C102.451 35.8117 101.021 35.4467 99.7436 34.7166C98.4863 33.9664 97.4826 32.9525 96.7323 31.6749C96.0023 30.3974 95.6373 28.9577 95.6373 27.3557C95.6373 25.7538 95.9719 24.3242 96.641 23.0669C97.3305 21.7894 98.2633 20.7857 99.4394 20.0557C100.616 19.3054 101.944 18.9302 103.424 18.9302C104.62 18.9302 105.726 19.1837 106.739 19.6907C107.753 20.1773 108.605 20.8465 109.295 21.6982V13.4856C109.295 13.0192 109.436 12.6441 109.72 12.3602C110.025 12.0763 110.4 11.9343 110.846 11.9343C111.312 11.9343 111.687 12.0763 111.971 12.3602C112.255 12.6441 112.397 13.0192 112.397 13.4856V27.3557C112.397 28.9577 112.022 30.3974 111.272 31.6749C110.542 32.9525 109.548 33.9664 108.291 34.7166C107.034 35.4467 105.614 35.8117 104.032 35.8117ZM104.032 33.0741C105.067 33.0741 105.989 32.8308 106.8 32.3441C107.611 31.8372 108.25 31.1477 108.717 30.2758C109.183 29.4038 109.416 28.4305 109.416 27.3557C109.416 26.2607 109.183 25.2874 108.717 24.4357C108.25 23.584 107.611 22.9149 106.8 22.4282C105.989 21.9212 105.067 21.6678 104.032 21.6678C103.018 21.6678 102.096 21.9212 101.264 22.4282C100.453 22.9149 99.8044 23.584 99.3177 24.4357C98.8513 25.2874 98.6181 26.2607 98.6181 27.3557C98.6181 28.4305 98.8513 29.4038 99.3177 30.2758C99.8044 31.1477 100.453 31.8372 101.264 32.3441C102.096 32.8308 103.018 33.0741 104.032 33.0741Z" fill="#1B1A1A"/>
<path d="M124.811 35.8117C123.331 35.8117 122.002 35.4467 120.826 34.7166C119.65 33.9664 118.717 32.9626 118.028 31.7054C117.359 30.4279 117.024 28.9881 117.024 27.3862C117.024 25.7842 117.389 24.3445 118.119 23.0669C118.87 21.7894 119.873 20.7857 121.131 20.0557C122.408 19.3054 123.838 18.9302 125.419 18.9302C127.001 18.9302 128.42 19.3054 129.678 20.0557C130.935 20.7857 131.929 21.7894 132.659 23.0669C133.409 24.3445 133.784 25.7842 133.784 27.3862H132.598C132.598 28.9881 132.253 30.4279 131.564 31.7054C130.894 32.9626 129.972 33.9664 128.796 34.7166C127.619 35.4467 126.291 35.8117 124.811 35.8117ZM125.419 33.0741C126.453 33.0741 127.376 32.8308 128.187 32.3441C128.998 31.8372 129.637 31.1579 130.104 30.3062C130.57 29.4342 130.803 28.4609 130.803 27.3862C130.803 26.2911 130.57 25.3178 130.104 24.4661C129.637 23.5942 128.998 22.9149 128.187 22.4282C127.376 21.9212 126.453 21.6678 125.419 21.6678C124.405 21.6678 123.483 21.9212 122.651 22.4282C121.84 22.9149 121.191 23.5942 120.705 24.4661C120.238 25.3178 120.005 26.2911 120.005 27.3862C120.005 28.4609 120.238 29.4342 120.705 30.3062C121.191 31.1579 121.84 31.8372 122.651 32.3441C123.483 32.8308 124.405 33.0741 125.419 33.0741ZM132.233 35.7204C131.787 35.7204 131.411 35.5785 131.107 35.2946C130.823 34.9904 130.681 34.6153 130.681 34.1691V29.5153L131.259 26.2911L133.784 27.3862V34.1691C133.784 34.6153 133.632 34.9904 133.328 35.2946C133.044 35.5785 132.679 35.7204 132.233 35.7204Z" fill="#1B1A1A"/>
<path d="M139.892 25.2874C139.892 24.0707 140.186 22.9858 140.774 22.0328C141.382 21.0594 142.193 20.2889 143.207 19.7211C144.221 19.1533 145.336 18.8694 146.553 18.8694C147.77 18.8694 148.672 19.0722 149.26 19.4777C149.869 19.863 150.102 20.3294 149.96 20.8769C149.899 21.1608 149.777 21.3839 149.595 21.5461C149.433 21.688 149.24 21.7793 149.017 21.8198C148.794 21.8604 148.551 21.8503 148.287 21.7894C146.989 21.5258 145.823 21.5055 144.789 21.7286C143.755 21.9517 142.934 22.3674 142.325 22.9757C141.737 23.584 141.443 24.3546 141.443 25.2874H139.892ZM139.922 35.69C139.436 35.69 139.06 35.5683 138.797 35.325C138.533 35.0614 138.401 34.6761 138.401 34.1691V20.5727C138.401 20.0861 138.533 19.7109 138.797 19.4473C139.06 19.1837 139.436 19.0519 139.922 19.0519C140.429 19.0519 140.804 19.1837 141.048 19.4473C141.311 19.6907 141.443 20.0658 141.443 20.5727V34.1691C141.443 34.6558 141.311 35.031 141.048 35.2946C140.804 35.5582 140.429 35.69 139.922 35.69Z" fill="#1B1A1A"/>
</svg>
